<svg xmlns="http://www.w3.org/2000/svg" xmlns:xlink="http://www.w3.org/1999/xlink" width="1080" zoomAndPan="magnify" viewBox="0 0 810 809.999993" height="1080" preserveAspectRatio="xMidYMid meet" version="1.0"><defs><g/></defs><rect x="-81" width="972" fill="#ffffff" y="-80.999999" height="971.999992" fill-opacity="1"/><rect x="-81" width="972" fill="#000000" y="-80.999999" height="971.999992" fill-opacity="1"/><g fill="#ffffff" fill-opacity="1"><g transform="translate(22.106379, 650.405659)"><g><path d="M 426.921875 -532.5625 L 426.921875 -444.046875 L 273.203125 -444.046875 L 273.203125 0 L 168.296875 0 L 168.296875 -444.046875 L 14.578125 -444.046875 L 14.578125 -532.5625 Z M 426.921875 -532.5625 "/></g></g></g><g fill="#ff5500" fill-opacity="1"><g transform="translate(275.134737, 649.638656)"><g><path d="M 128.96875 0 L 53.859375 0 L 53.859375 -414.40625 L 161 -414.40625 L 265.875 -109.6875 L 271.828125 -109.6875 L 376.140625 -414.40625 L 480.734375 -414.40625 L 480.734375 0 L 403.0625 0 L 403.0625 -273.8125 L 395.96875 -274.9375 L 300.171875 0 L 231.859375 0 L 136.0625 -274.9375 L 128.96875 -273.8125 Z M 128.96875 0 "/></g></g></g></svg>